<mxfile host="Electron" agent="Mozilla/5.0 (Windows NT 10.0; Win64; x64) AppleWebKit/537.36 (KHTML, like Gecko) draw.io/24.7.8 Chrome/128.0.6613.36 Electron/32.0.1 Safari/537.36" version="24.7.8">
  <diagram name="Seite-1" id="KPvMatFtawjSY6nTeGH0">
    <mxGraphModel dx="1728" dy="1003" grid="1" gridSize="10" guides="1" tooltips="1" connect="1" arrows="1" fold="1" page="1" pageScale="1" pageWidth="827" pageHeight="1169" math="0" shadow="0">
      <root>
        <mxCell id="0" />
        <mxCell id="1" parent="0" />
        <mxCell id="_36KKs7gGeN7UvDyYJys-1" value="" style="rounded=0;whiteSpace=wrap;html=1;fillColor=#2B92E0;strokeColor=none;rotation=-45;" parent="1" vertex="1">
          <mxGeometry x="87.57" y="292.43" width="800" height="240" as="geometry" />
        </mxCell>
        <mxCell id="_36KKs7gGeN7UvDyYJys-2" value="" style="rounded=0;whiteSpace=wrap;html=1;strokeColor=none;fillColor=#E17A2A;rotation=-45;" parent="1" vertex="1">
          <mxGeometry x="170" y="560" width="40" height="120" as="geometry" />
        </mxCell>
        <mxCell id="_36KKs7gGeN7UvDyYJys-10" value="" style="rounded=0;whiteSpace=wrap;html=1;strokeColor=none;fillColor=#31DEB9;rotation=315;" parent="1" vertex="1">
          <mxGeometry x="200" y="520" width="40" height="60" as="geometry" />
        </mxCell>
        <mxCell id="_36KKs7gGeN7UvDyYJys-11" value="" style="rounded=0;whiteSpace=wrap;html=1;strokeColor=none;gradientColor=none;fillColor=#31DEB9;rotation=315;" parent="1" vertex="1">
          <mxGeometry x="250" y="470" width="40" height="60" as="geometry" />
        </mxCell>
        <mxCell id="_36KKs7gGeN7UvDyYJys-12" value="" style="rounded=0;whiteSpace=wrap;html=1;strokeColor=none;fillColor=#31DEB9;rotation=315;" parent="1" vertex="1">
          <mxGeometry x="300" y="420" width="40" height="60" as="geometry" />
        </mxCell>
        <mxCell id="_36KKs7gGeN7UvDyYJys-13" value="" style="rounded=0;whiteSpace=wrap;html=1;strokeColor=none;gradientColor=none;fillColor=#31DEB9;rotation=315;" parent="1" vertex="1">
          <mxGeometry x="350" y="370" width="40" height="60" as="geometry" />
        </mxCell>
        <mxCell id="g-rsbQdkPr0Xx3ncaePd-2" value="" style="rounded=0;whiteSpace=wrap;html=1;strokeColor=none;fillColor=#E17A2A;rotation=315;" vertex="1" parent="1">
          <mxGeometry x="420" y="310" width="40" height="120" as="geometry" />
        </mxCell>
        <mxCell id="g-rsbQdkPr0Xx3ncaePd-3" value="" style="rounded=0;whiteSpace=wrap;html=1;strokeColor=none;fillColor=#31DEB9;rotation=315;" vertex="1" parent="1">
          <mxGeometry x="450" y="270" width="40" height="60" as="geometry" />
        </mxCell>
        <mxCell id="g-rsbQdkPr0Xx3ncaePd-4" value="" style="rounded=0;whiteSpace=wrap;html=1;strokeColor=none;gradientColor=none;fillColor=#31DEB9;rotation=315;" vertex="1" parent="1">
          <mxGeometry x="500" y="220" width="40" height="60" as="geometry" />
        </mxCell>
        <mxCell id="g-rsbQdkPr0Xx3ncaePd-5" value="" style="rounded=0;whiteSpace=wrap;html=1;strokeColor=none;fillColor=#31DEB9;rotation=315;" vertex="1" parent="1">
          <mxGeometry x="550" y="170" width="40" height="60" as="geometry" />
        </mxCell>
        <mxCell id="g-rsbQdkPr0Xx3ncaePd-6" value="" style="rounded=0;whiteSpace=wrap;html=1;strokeColor=none;gradientColor=none;fillColor=#31DEB9;rotation=315;" vertex="1" parent="1">
          <mxGeometry x="600" y="120" width="40" height="60" as="geometry" />
        </mxCell>
        <mxCell id="g-rsbQdkPr0Xx3ncaePd-7" value="" style="rounded=0;whiteSpace=wrap;html=1;strokeColor=none;fillColor=#E17A2A;rotation=315;" vertex="1" parent="1">
          <mxGeometry x="670" y="60" width="40" height="120" as="geometry" />
        </mxCell>
      </root>
    </mxGraphModel>
  </diagram>
</mxfile>
